<svg width="318" height="70" viewBox="0 0 318 70" fill="none" xmlns="http://www.w3.org/2000/svg">
<path d="M9.83344 69.44C8.0201 69.44 6.39344 68.7467 4.95344 67.36C3.56677 66.0267 2.87344 63.9733 2.87344 61.2C2.87344 60.08 3.03344 58.8267 3.35344 57.44C2.44677 56.6933 1.75344 55.84 1.27344 54.88C0.793438 53.8667 0.553438 53.0133 0.553438 52.32C0.606771 51.8933 0.980104 51.5467 1.67344 51.28C2.4201 51.0133 3.67344 50.7733 5.43344 50.56C7.03344 46.0267 8.87344 41.04 10.9534 35.6C13.0868 30.16 15.5668 24.24 18.3934 17.84C19.0334 16.4533 19.9134 15.76 21.0334 15.76C21.5134 15.76 22.0201 15.8933 22.5534 16.16C22.4468 14.6133 22.3401 13.0933 22.2334 11.6C22.1801 10.32 22.4201 9.38666 22.9534 8.8C23.5401 8.21333 24.2601 7.92 25.1134 7.92C26.1801 7.92 27.3268 8.32 28.5534 9.12C29.7801 9.92 30.8468 11.04 31.7534 12.48C32.6601 13.92 33.1401 15.6533 33.1934 17.68C33.2468 19.7067 33.4068 22.32 33.6734 25.52C33.9934 28.6667 34.3668 32.08 34.7934 35.76C35.2201 39.3867 35.6734 42.96 36.1534 46.48C37.2734 46.64 38.4201 47.04 39.5934 47.68C40.8201 48.2667 41.8601 49.04 42.7134 50C43.5668 50.9067 43.9934 51.9467 43.9934 53.12C43.9934 53.9733 43.7001 54.5067 43.1134 54.72C42.5268 54.9333 41.7801 55.04 40.8734 55.04H38.9534C38.6868 55.04 38.4201 55.04 38.1534 55.04C37.9401 55.04 37.7001 55.04 37.4334 55.04C37.8601 57.5467 38.2601 59.6533 38.6334 61.36C39.0068 63.0667 39.3534 64.1867 39.6734 64.72C39.9934 65.2533 39.7801 65.7867 39.0334 66.32C38.2868 66.8533 37.4334 67.12 36.4734 67.12C34.6601 67.12 33.0601 66.48 31.6734 65.2C30.2868 63.92 29.3001 61.4933 28.7134 57.92C28.6068 57.44 28.5268 56.9333 28.4734 56.4L13.5134 58.72C12.9268 60.5333 12.3401 62.32 11.7534 64.08C11.3268 65.4667 11.0868 66.56 11.0334 67.36C11.0334 68.16 11.0068 68.6933 10.9534 68.96C10.9001 69.28 10.5268 69.44 9.83344 69.44ZM24.2334 31.6C22.9534 34.5867 21.7268 37.52 20.5534 40.4C19.3801 43.28 18.2334 46.1067 17.1134 48.88L26.8734 47.52C26.3934 44.8533 25.9134 42.2133 25.4334 39.6C25.0068 36.9867 24.6068 34.32 24.2334 31.6ZM63.3784 67.12C61.6718 67.12 59.8584 66.5067 57.9384 65.28C56.0184 64.0533 54.3918 62.24 53.0584 59.84C51.0851 58.24 49.6184 56.3467 48.6584 54.16C47.7518 51.92 47.2984 49.7067 47.2984 47.52C47.2984 43.84 47.7784 40.32 48.7384 36.96C49.6984 33.5467 51.0051 30.5333 52.6584 27.92C54.3651 25.2533 56.3118 23.1467 58.4984 21.6C60.7384 20.0533 63.1118 19.28 65.6184 19.28C67.9651 19.28 70.3651 20.16 72.8184 21.92C73.0851 19.4133 73.3518 16.88 73.6184 14.32C73.9384 11.7067 74.3118 8.98666 74.7384 6.16C74.8451 5.57333 75.0051 5.09333 75.2184 4.72C75.4851 4.29333 76.0184 4.08 76.8184 4.08C78.2584 4.08 79.7251 4.50666 81.2184 5.36C82.7651 6.16 84.0451 7.30666 85.0584 8.8C86.0718 10.24 86.4718 11.9467 86.2584 13.92C85.7784 18.4533 85.2984 23.12 84.8184 27.92C84.3918 32.72 83.9918 37.4133 83.6184 42C83.2451 46.5867 82.9518 50.9067 82.7384 54.96C82.5251 58.96 82.4184 62.48 82.4184 65.52C82.4184 66.64 81.9918 67.2 81.1384 67.2C79.9651 67.2 78.5251 66.8267 76.8184 66.08C75.1651 65.3333 73.7784 64 72.6584 62.08C71.0051 63.84 69.3251 65.12 67.6184 65.92C65.9651 66.72 64.5518 67.12 63.3784 67.12ZM59.4584 52.72C59.4584 55.0133 60.4984 56.16 62.5784 56.16C63.6451 56.16 65.0584 55.7867 66.8184 55.04C68.5784 54.24 69.9651 53.0667 70.9784 51.52C71.1384 47.6267 71.2984 43.8667 71.4584 40.24C71.6718 36.56 71.9118 32.88 72.1784 29.2C71.2184 28.6667 70.2584 28.4 69.2984 28.4C67.4851 28.4 65.8318 29.44 64.3384 31.52C62.8451 33.6 61.6451 36.48 60.7384 40.16C59.8851 43.7867 59.4584 47.9733 59.4584 52.72ZM111.128 67.2C109.795 67.2 108.355 66.9333 106.808 66.4C105.315 65.92 104.115 65.12 103.208 64C101.128 63.04 99.5551 61.84 98.4884 60.4C97.4751 58.9067 96.7818 57.0667 96.4084 54.88L90.8884 21.68C90.8351 21.4133 90.7818 21.1467 90.7284 20.88C90.7284 20.6133 90.7284 20.3733 90.7284 20.16C90.7284 19.52 90.8884 19.0133 91.2084 18.64C91.5818 18.2667 92.2751 18.08 93.2884 18.08C95.9551 18.08 98.2484 18.96 100.168 20.72C102.088 22.4267 103.288 24.7467 103.768 27.68L107.608 50.88H107.928C108.942 48 109.928 44.7467 110.888 41.12C111.848 37.44 112.808 33.76 113.768 30.08C114.728 26.4 115.608 23.0933 116.408 20.16C116.515 19.7333 116.888 19.44 117.528 19.28C118.168 19.0667 118.915 18.96 119.768 18.96C121.635 18.96 123.155 19.7067 124.328 21.2C125.555 22.6933 126.168 24.6133 126.168 26.96C126.168 28.4 125.875 30 125.288 31.76L112.968 66C112.702 66.8 112.088 67.2 111.128 67.2ZM140.905 67.12C139.519 67.12 138.052 66.8533 136.505 66.32C135.012 65.7867 133.732 65.0133 132.665 64C131.652 62.9867 131.145 61.76 131.145 60.32C131.145 59.4667 131.199 57.9467 131.305 55.76C131.412 53.5733 131.545 51.04 131.705 48.16C131.865 45.2267 132.052 42.2133 132.265 39.12C132.479 35.9733 132.719 32.9867 132.985 30.16C133.252 27.3333 133.492 24.9333 133.705 22.96C133.759 22.5333 134.025 22.2667 134.505 22.16C134.985 22 135.385 21.92 135.705 21.92C136.932 21.92 138.292 22.2667 139.785 22.96C141.279 23.6533 142.559 24.5333 143.625 25.6C144.745 26.6667 145.305 27.7867 145.305 28.96C145.305 29.6533 145.199 31.04 144.985 33.12C144.772 35.1467 144.505 37.5733 144.185 40.4C143.919 43.2267 143.625 46.1867 143.305 49.28C143.039 52.3733 142.799 55.3867 142.585 58.32C142.372 61.2 142.265 63.7067 142.265 65.84C142.265 66.1067 142.159 66.3733 141.945 66.64C141.732 66.96 141.385 67.12 140.905 67.12ZM142.025 14C140.265 14 138.639 13.8133 137.145 13.44C135.705 13.0133 134.559 12.2667 133.705 11.2C132.905 10.1333 132.559 8.61333 132.665 6.64C132.772 5.62666 132.905 4.53333 133.065 3.36C133.279 2.13333 133.972 1.38666 135.145 1.12C135.785 1.01333 136.559 0.933332 137.465 0.879999C138.372 0.826663 139.172 0.799995 139.865 0.799995C141.359 0.799995 143.012 1.04 144.825 1.52C145.732 1.73333 146.185 2.08 146.185 2.56C146.185 3.78666 145.999 5.22666 145.625 6.88C145.252 8.53333 144.852 10.8 144.425 13.68C143.572 13.8933 142.772 14 142.025 14ZM166.487 67.04C164.513 67.04 162.46 66.7733 160.327 66.24C158.247 65.76 156.407 64.6133 154.807 62.8C152.993 61.04 151.74 59.0933 151.047 56.96C150.407 54.7733 150.087 52.1333 150.087 49.04C150.087 45.2 150.54 41.52 151.447 38C152.353 34.4267 153.66 31.28 155.367 28.56C157.127 25.7867 159.233 23.6 161.687 22C164.14 20.4 166.887 19.6 169.927 19.6C171.473 19.6 172.833 19.76 174.007 20.08C175.18 20.4 176.273 21.1733 177.287 22.4C179.153 22.9333 180.487 23.92 181.287 25.36C182.14 26.8 182.567 28.2933 182.567 29.84C182.567 31.2267 182.193 32.8267 181.447 34.64C180.753 36.4 180.087 38.2133 179.447 40.08C179.287 40.4533 179.127 40.7733 178.967 41.04C178.807 41.3067 178.46 41.44 177.927 41.44C177.34 41.44 176.62 41.1733 175.767 40.64C174.913 40.0533 174.06 39.36 173.207 38.56C172.407 37.76 171.74 36.96 171.207 36.16C170.673 35.36 170.407 34.7467 170.407 34.32C170.46 33.5733 170.7 32.64 171.127 31.52C171.607 30.4 172.247 29.2533 173.047 28.08C171.607 27.8133 170.22 28.3467 168.887 29.68C167.607 31.0133 166.46 32.88 165.447 35.28C164.433 37.6267 163.607 40.2133 162.967 43.04C162.38 45.8667 162.087 48.64 162.087 51.36C162.087 52.2133 162.113 53.0667 162.167 53.92C162.22 54.7733 162.327 55.5733 162.487 56.32C163.34 56.5333 164.247 56.64 165.207 56.64C167.18 56.64 168.913 56.24 170.407 55.44C171.953 54.5867 173.26 53.6 174.327 52.48C175.447 51.36 176.327 50.4 176.967 49.6C177.66 48.7467 178.14 48.32 178.407 48.32C179.473 48.32 180.353 48.72 181.047 49.52C181.74 50.32 182.087 51.4133 182.087 52.8C182.087 55.3067 181.367 57.6533 179.927 59.84C178.487 62.0267 176.593 63.7867 174.247 65.12C171.9 66.4 169.313 67.04 166.487 67.04ZM196.936 66.96C195.443 66.96 193.923 66.5067 192.376 65.6C190.883 64.64 189.469 63.3867 188.136 61.84C186.856 60.24 185.816 58.48 185.016 56.56C184.216 54.64 183.816 52.72 183.816 50.8C183.816 47.0133 184.349 43.2533 185.416 39.52C186.536 35.7867 188.056 32.4 189.976 29.36C191.949 26.32 194.269 23.8933 196.936 22.08C199.603 20.2667 202.483 19.36 205.576 19.36C206.963 19.36 208.483 19.7867 210.136 20.64C211.789 21.44 212.989 22.64 213.736 24.24C215.763 25.2 217.256 26.64 218.216 28.56C219.176 30.48 219.549 32.24 219.336 33.84C219.176 35.12 218.616 36.5867 217.656 38.24C216.696 39.84 215.469 41.4933 213.976 43.2C212.483 44.8533 210.829 46.4 209.016 47.84C207.203 49.2267 205.336 50.3733 203.416 51.28C201.549 52.1333 199.736 52.56 197.976 52.56C197.336 52.56 196.643 52.3467 195.896 51.92C196.056 53.6267 196.536 54.8533 197.336 55.6C198.189 56.2933 199.309 56.64 200.696 56.64C202.723 56.64 204.963 55.92 207.416 54.48C209.869 53.04 212.483 51.12 215.256 48.72C216.483 49.3067 217.416 50.08 218.056 51.04C218.696 51.9467 218.936 53.0933 218.776 54.48C218.563 56.08 217.709 57.6267 216.216 59.12C214.776 60.56 212.936 61.8933 210.696 63.12C208.509 64.2933 206.189 65.2267 203.736 65.92C201.336 66.6133 199.069 66.96 196.936 66.96ZM208.856 28.16C206.776 28.2667 204.883 29.2267 203.176 31.04C201.469 32.8533 200.029 35.0933 198.856 37.76C197.683 40.3733 196.829 42.9867 196.296 45.6C198.056 45.2267 199.709 44.32 201.256 42.88C202.856 41.3867 204.243 39.7067 205.416 37.84C206.643 35.92 207.576 34.08 208.216 32.32C208.856 30.5067 209.069 29.12 208.856 28.16ZM229.815 67.36C228.695 67.36 227.495 67.12 226.215 66.64C224.935 66.2133 223.841 65.44 222.935 64.32C222.028 63.2 221.575 61.6267 221.575 59.6C221.575 59.3867 221.575 59.1733 221.575 58.96C221.575 58.6933 221.601 58.4533 221.655 58.24C222.241 52.8533 223.148 46.3733 224.375 38.8C225.601 31.2267 227.361 23.0133 229.655 14.16C229.121 12.9333 228.508 11.76 227.815 10.64C227.121 9.52 226.775 8.56 226.775 7.76C226.775 7.22666 226.988 6.85333 227.415 6.64C227.841 6.42666 228.295 6.32 228.775 6.32C230.481 6.32 232.215 6.74666 233.975 7.6C235.735 8.45333 237.361 9.78666 238.855 11.6C240.401 13.4133 241.601 15.7333 242.455 18.56L249.895 42.96H250.055C251.228 39.2267 252.321 35.7333 253.335 32.48C254.348 29.2267 255.361 25.9733 256.375 22.72C257.441 19.4667 258.561 16.0267 259.735 12.4C260.215 10.9067 260.828 9.84 261.575 9.2C262.321 8.56 263.175 8.24 264.135 8.24C265.041 8.24 266.135 8.53333 267.415 9.12C269.441 9.97333 270.855 11.36 271.655 13.28C272.455 15.1467 272.748 17.68 272.535 20.88C272.375 22.96 272.295 26 272.295 30C272.295 32.9333 272.321 36.16 272.375 39.68C272.481 43.1467 272.615 46.6133 272.775 50.08C272.988 53.5467 273.201 56.7467 273.415 59.68C273.681 62.56 273.975 64.9067 274.295 66.72C273.655 66.9867 272.828 67.12 271.815 67.12C270.161 67.12 268.535 66.6933 266.935 65.84C265.335 64.9867 264.401 63.52 264.135 61.44C263.761 58.4 263.441 55.0133 263.175 51.28C262.961 47.4933 262.855 43.8133 262.855 40.24C262.855 37.68 262.935 35.28 263.095 33.04H262.935L253.175 59.44C252.961 60.0267 252.401 60.32 251.495 60.32C250.268 60.32 249.041 59.92 247.815 59.12C245.948 58.5867 244.855 57.7333 244.535 56.56L236.935 30.96H236.775C236.348 33.04 235.868 35.3867 235.335 38C234.855 40.6133 234.375 43.3067 233.895 46.08C233.415 48.8533 233.015 51.52 232.695 54.08C232.375 56.64 232.215 58.88 232.215 60.8C232.215 62.08 232.295 63.1733 232.455 64.08C232.508 64.2933 232.535 64.48 232.535 64.64C232.535 64.8 232.535 64.96 232.535 65.12C232.535 65.9733 232.268 66.56 231.735 66.88C231.201 67.2 230.561 67.36 229.815 67.36ZM297.279 67.12C295.786 67.12 294.239 66.8 292.639 66.16C291.039 65.5733 289.866 64.6133 289.119 63.28C287.572 62.5867 286.452 61.4933 285.759 60C285.119 58.4533 284.852 56.7467 284.959 54.88C285.386 48.4267 285.732 41.9733 285.999 35.52C286.266 29.0667 286.772 22.6133 287.519 16.16C286.452 15.2 285.492 14.16 284.639 13.04C283.839 11.8667 283.439 10.88 283.439 10.08C283.439 9.22666 283.946 8.8 284.959 8.8C285.706 8.8 286.932 8.74666 288.639 8.64C290.346 8.48 292.212 8.32 294.239 8.16C296.266 7.94666 298.212 7.78666 300.079 7.68C301.946 7.52 303.412 7.44 304.479 7.44C307.572 7.44 310.079 7.86666 311.999 8.72C313.972 9.57333 315.412 10.6667 316.319 12C317.279 13.28 317.759 14.64 317.759 16.08C317.759 16.6133 317.492 16.88 316.959 16.88C316.479 16.88 316.026 16.88 315.599 16.88C315.172 16.8267 314.746 16.8 314.319 16.8C311.919 16.8 309.412 16.9333 306.799 17.2C304.186 17.4667 301.759 17.76 299.519 18.08C299.039 22.2933 298.639 26.6133 298.319 31.04C300.826 30.72 303.012 30.56 304.879 30.56C305.679 30.56 306.612 30.8 307.679 31.28C308.799 31.7067 309.866 32.2667 310.879 32.96C311.892 33.6533 312.746 34.4 313.439 35.2C314.132 35.9467 314.479 36.64 314.479 37.28C314.479 38.24 314.239 38.8533 313.759 39.12C313.279 39.3867 312.532 39.52 311.519 39.52C310.559 39.52 309.279 39.6267 307.679 39.84C306.132 40.0533 304.452 40.2933 302.639 40.56C300.879 40.7733 299.226 40.9333 297.679 41.04C297.519 43.6 297.386 46.1867 297.279 48.8C297.172 51.36 297.092 53.92 297.039 56.48C299.226 55.04 301.332 53.8933 303.359 53.04C305.386 52.1333 307.199 51.68 308.799 51.68C309.866 51.68 311.066 52 312.399 52.64C313.732 53.28 314.906 54.08 315.919 55.04C316.932 55.9467 317.439 56.8 317.439 57.6C317.439 58.2933 317.119 58.7733 316.479 59.04L297.279 67.12Z" fill="white"/>
</svg>
